<?xml version="1.0" encoding="utf-8"?>
<COLLADA xmlns="http://www.collada.org/2005/11/COLLADASchema" version="1.4.1" xmlns:xsi="http://www.w3.org/2001/XMLSchema-instance">
  <asset>
    <contributor>
      <author>Blockbench user</author>
      <authoring_tool>Blockbench</authoring_tool>
    </contributor>
    <created>2026-08-09T06:53:53.749Z</created>
    <modified>2026-08-09T06:53:53.749Z</modified>
    <unit name="meter" meter="1.0"/>
    <up_axis>Y_UP</up_axis>
  </asset>
  <library_effects>
    <effect id="Material_0-effect">
      <profile_COMMON>
        <newparam sid="Image_0-surface">
          <surface type="2D">
            <init_from>Image_0</init_from>
          </surface>
        </newparam>
        <newparam sid="Image_0-sampler">
          <sampler2D>
            <source>Image_0-surface</source>
          </sampler2D>
        </newparam>
        <technique sid="common">
          <lambert>
            <emission>
              <color sid="emission">0 0 0 1</color>
            </emission>
            <diffuse>
              <texture texture="Image_0-sampler" texcoord="UVMap"/>
            </diffuse>
            <index_of_refraction>
              <float sid="ior">1.45</float>
            </index_of_refraction>
          </lambert>
        </technique>
      </profile_COMMON>
    </effect>
  </library_effects>
  <library_images>
    <image id="Image_0" name="Image_0">
      <init_from>DFBlocks.png</init_from>
    </image>
  </library_images>
  <library_materials>
    <material id="Material_0-material" name="Material_0">
      <instance_effect url="#Material_0-effect"/>
    </material>
  </library_materials>
  <library_geometries>
    <geometry id="f3daf40e-75e8-e2ee-5b09-33c7dfe33139-mesh" name="Main">
      <mesh>
        <source id="f3daf40e-75e8-e2ee-5b09-33c7dfe33139-mesh-positions">
          <float_array id="f3daf40e-75e8-e2ee-5b09-33c7dfe33139-mesh-positions-array" count="456">0.4375 0.4375 0.4375 0.4375 0.4375 -0.4375 0.4375 -0.4375 0.4375 0.4375 -0.4375 -0.4375 -0.4375 0.4375 0.4375 -0.4375 0.4375 -0.4375 -0.4375 -0.4375 0.4375 -0.4375 -0.4375 -0.4375 -0.375 0.5 0.5 -0.375 0.5 0.375 -0.375 -0.5 0.5 -0.375 -0.5 0.375 -0.5 0.5 0.5 -0.5 0.5 0.375 -0.5 -0.5 0.5 -0.5 -0.5 0.375 -0.375 0.5 -0.375 -0.375 0.5 -0.5 -0.375 -0.5 -0.375 -0.375 -0.5 -0.5 -0.5 0.5 -0.375 -0.5 0.5 -0.5 -0.5 -0.5 -0.375 -0.5 -0.5 -0.5 0.5 0.5 -0.375 0.5 0.5 -0.5 0.5 -0.5 -0.375 0.5 -0.5 -0.5 0.375 0.5 -0.375 0.375 0.5 -0.5 0.375 -0.5 -0.375 0.375 -0.5 -0.5 0.5 0.5 0.5 0.5 0.5 0.375 0.5 -0.5 0.5 0.5 -0.5 0.375 0.375 0.5 0.5 0.375 0.5 0.375 0.375 -0.5 0.5 0.375 -0.5 0.375 -0.375 0.5 -0.375 -0.375 0.375 -0.375 -0.375 0.5 0.375 -0.375 0.375 0.375 -0.5 0.5 -0.375 -0.5 0.375 -0.375 -0.5 0.5 0.375 -0.5 0.375 0.375 -0.375 -0.375 -0.375 -0.375 -0.5 -0.375 -0.375 -0.375 0.375 -0.375 -0.5 0.375 -0.5 -0.375 -0.375 -0.5 -0.5 -0.375 -0.5 -0.375 0.375 -0.5 -0.5 0.375 0.5 0.5 -0.375 0.5 0.375 -0.375 0.5 0.5 0.375 0.5 0.375 0.375 0.375 0.5 -0.375 0.375 0.375 -0.375 0.375 0.5 0.375 0.375 0.375 0.375 0.5 -0.375 -0.375 0.5 -0.5 -0.375 0.5 -0.375 0.375 0.5 -0.5 0.375 0.375 -0.375 -0.375 0.375 -0.5 -0.375 0.375 -0.375 0.375 0.375 -0.5 0.375 -0.375 -0.375 -0.5 -0.375 -0.5 -0.5 0.375 -0.375 -0.5 0.375 -0.5 -0.5 -0.375 -0.375 -0.375 -0.375 -0.5 -0.375 0.375 -0.375 -0.375 0.375 -0.5 -0.375 -0.375 0.5 -0.5 -0.375 0.375 -0.5 0.375 0.5 -0.5 0.375 0.375 -0.5 -0.375 0.5 -0.375 -0.375 0.375 -0.375 0.375 0.5 -0.375 0.375 0.375 -0.375 -0.375 0.5 0.375 -0.375 0.375 0.375 0.375 0.5 0.375 0.375 0.375 0.375 -0.375 0.5 0.5 -0.375 0.375 0.5 0.375 0.5 0.5 0.375 0.375 0.5 -0.375 -0.375 0.375 -0.375 -0.5 0.375 0.375 -0.375 0.375 0.375 -0.5 0.375 -0.375 -0.375 0.5 -0.375 -0.5 0.5 0.375 -0.375 0.5 0.375 -0.5 0.5 0.46875 0.441942 0.353553 0.4375 0.441942 0.353553 0.46875 -0.353553 -0.441942 0.4375 -0.353553 -0.441942 0.46875 0.353553 0.441942 0.4375 0.353553 0.441942 0.46875 -0.441942 -0.353553 0.4375 -0.441942 -0.353553 -0.4375 0.441942 0.353553 -0.46875 0.441942 0.353553 -0.4375 -0.353553 -0.441942 -0.46875 -0.353553 -0.441942 -0.4375 0.353553 0.441942 -0.46875 0.353553 0.441942 -0.4375 -0.441942 -0.353553 -0.46875 -0.441942 -0.353553 -0.353553 0.441942 0.46875 -0.353553 0.441942 0.4375 0.441942 -0.353553 0.46875 0.441942 -0.353553 0.4375 -0.441942 0.353553 0.46875 -0.441942 0.353553 0.4375 0.353553 -0.441942 0.46875 0.353553 -0.441942 0.4375 -0.353553 0.441942 -0.4375 -0.353553 0.441942 -0.46875 0.441942 -0.353553 -0.4375 0.441942 -0.353553 -0.46875 -0.441942 0.353553 -0.4375 -0.441942 0.353553 -0.46875 0.353553 -0.441942 -0.4375 0.353553 -0.441942 -0.46875 0.441942 0.4375 0.353553 0.441942 0.46875 0.353553 -0.353553 0.4375 -0.441942 -0.353553 0.46875 -0.441942 0.353553 0.4375 0.441942 0.353553 0.46875 0.441942 -0.441942 0.4375 -0.353553 -0.441942 0.46875 -0.353553 0.441942 -0.46875 0.353553 0.441942 -0.4375 0.353553 -0.353553 -0.46875 -0.441942 -0.353553 -0.4375 -0.441942 0.353553 -0.46875 0.441942 0.353553 -0.4375 0.441942 -0.441942 -0.46875 -0.353553 -0.441942 -0.4375 -0.353553</float_array>
          <technique_common>
            <accessor source="#f3daf40e-75e8-e2ee-5b09-33c7dfe33139-mesh-positions-array" count="152" stride="3">
              <param name="X" type="float"/>
              <param name="Y" type="float"/>
              <param name="Z" type="float"/>
            </accessor>
          </technique_common>
        </source>
        <source id="f3daf40e-75e8-e2ee-5b09-33c7dfe33139-mesh-normals">
          <float_array id="f3daf40e-75e8-e2ee-5b09-33c7dfe33139-mesh-normals-array" count="342">1 0 0 -1 0 0 0 1 0 0 -1 0 0 0 1 0 0 -1 1 0 0 -1 0 0 0 1 0 0 -1 0 0 0 1 0 0 -1 1 0 0 -1 0 0 0 1 0 0 -1 0 0 0 1 0 0 -1 1 0 0 -1 0 0 0 1 0 0 -1 0 0 0 1 0 0 -1 1 0 0 -1 0 0 0 1 0 0 -1 0 0 0 1 0 0 -1 1 0 0 -1 0 0 0 0 -1 0 0 1 0 1 0 0 -1 0 1 0 0 -1 0 0 0 0 -1 0 0 1 0 1 0 0 -1 0 1 0 0 -1 0 0 0 0 -1 0 0 1 0 1 0 0 -1 0 1 0 0 -1 0 0 0 0 -1 0 0 1 0 1 0 0 -1 0 0 0 -1 0 0 1 -1 0 0 1 0 0 0 1 0 0 -1 0 0 0 -1 0 0 1 -1 0 0 1 0 0 0 1 0 0 -1 0 0 0 -1 0 0 1 -1 0 0 1 0 0 0 1 0 0 -1 0 0 0 -1 0 0 1 -1 0 0 1 0 0 0 1 0 0 -1 0 0 0.707107 -0.707107 0 -0.707107 0.707107 0 0.707107 0.707107 0 -0.707107 -0.707107 1 0 0 -1 0 0 0 0.707107 -0.707107 0 -0.707107 0.707107 0 0.707107 0.707107 0 -0.707107 -0.707107 1 0 0 -1 0 0 0.707107 0.707107 0 -0.707107 -0.707107 0 -0.707107 0.707107 0 0.707107 -0.707107 0 0 0 1 0 0 -1 0.707107 0.707107 0 -0.707107 -0.707107 0 -0.707107 0.707107 0 0.707107 -0.707107 0 0 0 1 0 0 -1 0.707107 0 -0.707107 -0.707107 0 0.707107 0.707107 0 0.707107 -0.707107 0 -0.707107 0 -1 0 0 1 0 0.707107 0 -0.707107 -0.707107 0 0.707107 0.707107 0 0.707107 -0.707107 0 -0.707107 0 -1 0 0 1 0</float_array>
          <technique_common>
            <accessor source="#f3daf40e-75e8-e2ee-5b09-33c7dfe33139-mesh-normals-array" count="114" stride="3">
              <param name="X" type="float"/>
              <param name="Y" type="float"/>
              <param name="Z" type="float"/>
            </accessor>
          </technique_common>
        </source>
        <source id="f3daf40e-75e8-e2ee-5b09-33c7dfe33139-mesh-map-0">
          <float_array id="f3daf40e-75e8-e2ee-5b09-33c7dfe33139-mesh-map-0-array" count="912">0.058594 0.941406 0.058594 0.996094 0.003906 0.996094 0.003906 0.941406 0.058594 0.941406 0.058594 0.996094 0.003906 0.996094 0.003906 0.941406 0.003906 0.996094 0.003906 0.941406 0.058594 0.941406 0.058594 0.996094 0.003906 0.941406 0.003906 0.996094 0.058594 0.996094 0.058594 0.941406 0.058594 0.941406 0.058594 0.996094 0.003906 0.996094 0.003906 0.941406 0.058594 0.941406 0.058594 0.996094 0.003906 0.996094 0.003906 0.941406 0.003906 0.988281 0.058594 0.988281 0.058594 0.996094 0.003906 0.996094 0.003906 0.988281 0.058594 0.988281 0.058594 0.996094 0.003906 0.996094 0.003906 0.984375 0.003906 0.976563 0.011719 0.976563 0.011719 0.984375 0.003906 0.976563 0.003906 0.984375 0.011719 0.984375 0.011719 0.976563 0.003906 0.988281 0.058594 0.988281 0.058594 0.996094 0.003906 0.996094 0.003906 0.988281 0.058594 0.988281 0.058594 0.996094 0.003906 0.996094 0.003906 0.988281 0.058594 0.988281 0.058594 0.996094 0.003906 0.996094 0.003906 0.988281 0.058594 0.988281 0.058594 0.996094 0.003906 0.996094 0.003906 0.984375 0.003906 0.976563 0.011719 0.976563 0.011719 0.984375 0.003906 0.976563 0.003906 0.984375 0.011719 0.984375 0.011719 0.976563 0.003906 0.988281 0.058594 0.988281 0.058594 0.996094 0.003906 0.996094 0.003906 0.988281 0.058594 0.988281 0.058594 0.996094 0.003906 0.996094 0.003906 0.988281 0.058594 0.988281 0.058594 0.996094 0.003906 0.996094 0.003906 0.988281 0.058594 0.988281 0.058594 0.996094 0.003906 0.996094 0.003906 0.984375 0.003906 0.976563 0.011719 0.976563 0.011719 0.984375 0.003906 0.976563 0.003906 0.984375 0.011719 0.984375 0.011719 0.976563 0.003906 0.988281 0.058594 0.988281 0.058594 0.996094 0.003906 0.996094 0.003906 0.988281 0.058594 0.988281 0.058594 0.996094 0.003906 0.996094 0.003906 0.988281 0.058594 0.988281 0.058594 0.996094 0.003906 0.996094 0.003906 0.988281 0.058594 0.988281 0.058594 0.996094 0.003906 0.996094 0.003906 0.984375 0.003906 0.976563 0.011719 0.976563 0.011719 0.984375 0.003906 0.976563 0.003906 0.984375 0.011719 0.984375 0.011719 0.976563 0.003906 0.988281 0.058594 0.988281 0.058594 0.996094 0.003906 0.996094 0.003906 0.988281 0.058594 0.988281 0.058594 0.996094 0.003906 0.996094 0.003906 0.960938 0.050781 0.960938 0.050781 0.96875 0.003906 0.96875 0.003906 0.960938 0.050781 0.960938 0.050781 0.96875 0.003906 0.96875 0.003906 0.984375 0.003906 0.976563 0.011719 0.976563 0.011719 0.984375 0.003906 0.976563 0.003906 0.984375 0.011719 0.984375 0.011719 0.976563 0.003906 0.960938 0.050781 0.960938 0.050781 0.96875 0.003906 0.96875 0.003906 0.960938 0.050781 0.960938 0.050781 0.96875 0.003906 0.96875 0.003906 0.960938 0.050781 0.960938 0.050781 0.96875 0.003906 0.96875 0.003906 0.960938 0.050781 0.960938 0.050781 0.96875 0.003906 0.96875 0.003906 0.984375 0.003906 0.976563 0.011719 0.976563 0.011719 0.984375 0.003906 0.976563 0.003906 0.984375 0.011719 0.984375 0.011719 0.976563 0.003906 0.960938 0.050781 0.960938 0.050781 0.96875 0.003906 0.96875 0.003906 0.960938 0.050781 0.960938 0.050781 0.96875 0.003906 0.96875 0.003906 0.960938 0.050781 0.960938 0.050781 0.96875 0.003906 0.96875 0.003906 0.960938 0.050781 0.960938 0.050781 0.96875 0.003906 0.96875 0.003906 0.984375 0.003906 0.976563 0.011719 0.976563 0.011719 0.984375 0.003906 0.976563 0.003906 0.984375 0.011719 0.984375 0.011719 0.976563 0.003906 0.960938 0.050781 0.960938 0.050781 0.96875 0.003906 0.96875 0.003906 0.960938 0.050781 0.960938 0.050781 0.96875 0.003906 0.96875 0.003906 0.960938 0.050781 0.960938 0.050781 0.96875 0.003906 0.96875 0.003906 0.960938 0.050781 0.960938 0.050781 0.96875 0.003906 0.96875 0.003906 0.984375 0.003906 0.976563 0.011719 0.976563 0.011719 0.984375 0.003906 0.976563 0.003906 0.984375 0.011719 0.984375 0.011719 0.976563 0.003906 0.960938 0.050781 0.960938 0.050781 0.96875 0.003906 0.96875 0.003906 0.960938 0.050781 0.960938 0.050781 0.96875 0.003906 0.96875 0.003906 0.960938 0.050781 0.960938 0.050781 0.96875 0.003906 0.96875 0.003906 0.960938 0.050781 0.960938 0.050781 0.96875 0.003906 0.96875 0.003906 0.984375 0.003906 0.976563 0.011719 0.976563 0.011719 0.984375 0.003906 0.976563 0.003906 0.984375 0.011719 0.984375 0.011719 0.976563 0.003906 0.960938 0.050781 0.960938 0.050781 0.96875 0.003906 0.96875 0.003906 0.960938 0.050781 0.960938 0.050781 0.96875 0.003906 0.96875 0.003906 0.960938 0.050781 0.960938 0.050781 0.96875 0.003906 0.96875 0.003906 0.960938 0.050781 0.960938 0.050781 0.96875 0.003906 0.96875 0.003906 0.984375 0.003906 0.976563 0.011719 0.976563 0.011719 0.984375 0.003906 0.976563 0.003906 0.984375 0.011719 0.984375 0.011719 0.976563 0.003906 0.960938 0.050781 0.960938 0.050781 0.96875 0.003906 0.96875 0.003906 0.960938 0.050781 0.960938 0.050781 0.96875 0.003906 0.96875 0.003906 0.960938 0.050781 0.960938 0.050781 0.96875 0.003906 0.96875 0.003906 0.960938 0.050781 0.960938 0.050781 0.96875 0.003906 0.96875 0.003906 0.984375 0.003906 0.976563 0.011719 0.976563 0.011719 0.984375 0.003906 0.976563 0.003906 0.984375 0.011719 0.984375 0.011719 0.976563 0.003906 0.960938 0.050781 0.960938 0.050781 0.96875 0.003906 0.96875 0.003906 0.960938 0.050781 0.960938 0.050781 0.96875 0.003906 0.96875 0.003906 0.960938 0.050781 0.960938 0.050781 0.96875 0.003906 0.96875 0.003906 0.960938 0.050781 0.960938 0.050781 0.96875 0.003906 0.96875 0.003906 0.984375 0.003906 0.976563 0.011719 0.976563 0.011719 0.984375 0.003906 0.976563 0.003906 0.984375 0.011719 0.984375 0.011719 0.976563 0.003906 0.960938 0.050781 0.960938 0.050781 0.96875 0.003906 0.96875 0.003906 0.960938 0.050781 0.960938 0.050781 0.96875 0.003906 0.96875 0.003906 0.982422 0.050781 0.982422 0.050781 0.984375 0.003906 0.984375 0.003906 0.982422 0.050781 0.982422 0.050781 0.984375 0.003906 0.984375 0.058594 0.996094 0.054688 0.996094 0.054688 0.988281 0.058594 0.988281 0.054688 0.996094 0.058594 0.996094 0.058594 0.988281 0.054688 0.988281 0.003906 0.988281 0.050781 0.988281 0.050781 0.996094 0.003906 0.996094 0.003906 0.988281 0.050781 0.988281 0.050781 0.996094 0.003906 0.996094 0.003906 0.982422 0.050781 0.982422 0.050781 0.984375 0.003906 0.984375 0.003906 0.982422 0.050781 0.982422 0.050781 0.984375 0.003906 0.984375 0.058594 0.996094 0.054688 0.996094 0.054688 0.988281 0.058594 0.988281 0.054688 0.996094 0.058594 0.996094 0.058594 0.988281 0.054688 0.988281 0.003906 0.988281 0.050781 0.988281 0.050781 0.996094 0.003906 0.996094 0.003906 0.988281 0.050781 0.988281 0.050781 0.996094 0.003906 0.996094 0.003906 0.982422 0.050781 0.982422 0.050781 0.984375 0.003906 0.984375 0.003906 0.982422 0.050781 0.982422 0.050781 0.984375 0.003906 0.984375 0.058594 0.996094 0.054688 0.996094 0.054688 0.988281 0.058594 0.988281 0.054688 0.996094 0.058594 0.996094 0.058594 0.988281 0.054688 0.988281 0.003906 0.988281 0.050781 0.988281 0.050781 0.996094 0.003906 0.996094 0.003906 0.988281 0.050781 0.988281 0.050781 0.996094 0.003906 0.996094 0.003906 0.982422 0.050781 0.982422 0.050781 0.984375 0.003906 0.984375 0.003906 0.982422 0.050781 0.982422 0.050781 0.984375 0.003906 0.984375 0.058594 0.996094 0.054688 0.996094 0.054688 0.988281 0.058594 0.988281 0.054688 0.996094 0.058594 0.996094 0.058594 0.988281 0.054688 0.988281 0.003906 0.988281 0.050781 0.988281 0.050781 0.996094 0.003906 0.996094 0.003906 0.988281 0.050781 0.988281 0.050781 0.996094 0.003906 0.996094 0.003906 0.982422 0.050781 0.982422 0.050781 0.984375 0.003906 0.984375 0.003906 0.982422 0.050781 0.982422 0.050781 0.984375 0.003906 0.984375 0.058594 0.996094 0.054688 0.996094 0.054688 0.988281 0.058594 0.988281 0.054688 0.996094 0.058594 0.996094 0.058594 0.988281 0.054688 0.988281 0.003906 0.988281 0.050781 0.988281 0.050781 0.996094 0.003906 0.996094 0.003906 0.988281 0.050781 0.988281 0.050781 0.996094 0.003906 0.996094 0.003906 0.982422 0.050781 0.982422 0.050781 0.984375 0.003906 0.984375 0.003906 0.982422 0.050781 0.982422 0.050781 0.984375 0.003906 0.984375 0.058594 0.996094 0.054688 0.996094 0.054688 0.988281 0.058594 0.988281 0.054688 0.996094 0.058594 0.996094 0.058594 0.988281 0.054688 0.988281 0.003906 0.988281 0.050781 0.988281 0.050781 0.996094 0.003906 0.996094 0.003906 0.988281 0.050781 0.988281 0.050781 0.996094 0.003906 0.996094</float_array>
          <technique_common>
            <accessor source="#f3daf40e-75e8-e2ee-5b09-33c7dfe33139-mesh-map-0-array" count="456" stride="2">
              <param name="S" type="float"/>
              <param name="T" type="float"/>
            </accessor>
          </technique_common>
        </source>
        <vertices id="f3daf40e-75e8-e2ee-5b09-33c7dfe33139-mesh-vertices">
          <input semantic="POSITION" source="#f3daf40e-75e8-e2ee-5b09-33c7dfe33139-mesh-positions"/>
        </vertices>
        <polylist material="Material_0-material" count="6">
          <input semantic="VERTEX" source="#f3daf40e-75e8-e2ee-5b09-33c7dfe33139-mesh-vertices" offset="0"/>
          <input semantic="NORMAL" source="#f3daf40e-75e8-e2ee-5b09-33c7dfe33139-mesh-normals" offset="1"/>
          <input semantic="TEXCOORD" source="#f3daf40e-75e8-e2ee-5b09-33c7dfe33139-mesh-map-0" offset="2" set="0"/>
          <vcount>4 4 4 4 4 4 4 4 4 4 4 4 4 4 4 4 4 4 4 4 4 4 4 4 4 4 4 4 4 4 4 4 4 4 4 4 4 4 4 4 4 4 4 4 4 4 4 4 4 4 4 4 4 4 4 4 4 4 4 4 4 4 4 4 4 4 4 4 4 4 4 4 4 4 4 4 4 4 4 4 4 4 4 4 4 4 4 4 4 4 4 4 4 4 4 4 4 4 4 4 4 4 4 4 4 4 4 4 4 4 4 4 4 4</vcount>
          <p>3 0 0 1 0 1 0 0 2 2 0 3 6 1 4 4 1 5 5 1 6 7 1 7 0 2 8 1 2 9 5 2 10 4 2 11 3 3 12 2 3 13 6 3 14 7 3 15 2 4 16 0 4 17 4 4 18 6 4 19 7 5 20 5 5 21 1 5 22 3 5 23 11 6 24 9 6 25 8 6 26 10 6 27 14 7 28 12 7 29 13 7 30 15 7 31 8 8 32 9 8 33 13 8 34 12 8 35 11 9 36 10 9 37 14 9 38 15 9 39 10 10 40 8 10 41 12 10 42 14 10 43 15 11 44 13 11 45 9 11 46 11 11 47 19 12 48 17 12 49 16 12 50 18 12 51 22 13 52 20 13 53 21 13 54 23 13 55 16 14 56 17 14 57 21 14 58 20 14 59 19 15 60 18 15 61 22 15 62 23 15 63 18 16 64 16 16 65 20 16 66 22 16 67 23 17 68 21 17 69 17 17 70 19 17 71 27 18 72 25 18 73 24 18 74 26 18 75 30 19 76 28 19 77 29 19 78 31 19 79 24 20 80 25 20 81 29 20 82 28 20 83 27 21 84 26 21 85 30 21 86 31 21 87 26 22 88 24 22 89 28 22 90 30 22 91 31 23 92 29 23 93 25 23 94 27 23 95 35 24 96 33 24 97 32 24 98 34 24 99 38 25 100 36 25 101 37 25 102 39 25 103 32 26 104 33 26 105 37 26 106 36 26 107 35 27 108 34 27 109 38 27 110 39 27 111 34 28 112 32 28 113 36 28 114 38 28 115 39 29 116 37 29 117 33 29 118 35 29 119 43 30 120 41 30 121 40 30 122 42 30 123 46 31 124 44 31 125 45 31 126 47 31 127 40 32 128 41 32 129 45 32 130 44 32 131 43 33 132 42 33 133 46 33 134 47 33 135 42 34 136 40 34 137 44 34 138 46 34 139 47 35 140 45 35 141 41 35 142 43 35 143 51 36 144 49 36 145 48 36 146 50 36 147 54 37 148 52 37 149 53 37 150 55 37 151 48 38 152 49 38 153 53 38 154 52 38 155 51 39 156 50 39 157 54 39 158 55 39 159 50 40 160 48 40 161 52 40 162 54 40 163 55 41 164 53 41 165 49 41 166 51 41 167 59 42 168 57 42 169 56 42 170 58 42 171 62 43 172 60 43 173 61 43 174 63 43 175 56 44 176 57 44 177 61 44 178 60 44 179 59 45 180 58 45 181 62 45 182 63 45 183 58 46 184 56 46 185 60 46 186 62 46 187 63 47 188 61 47 189 57 47 190 59 47 191 67 48 192 65 48 193 64 48 194 66 48 195 70 49 196 68 49 197 69 49 198 71 49 199 64 50 200 65 50 201 69 50 202 68 50 203 67 51 204 66 51 205 70 51 206 71 51 207 66 52 208 64 52 209 68 52 210 70 52 211 71 53 212 69 53 213 65 53 214 67 53 215 75 54 216 73 54 217 72 54 218 74 54 219 78 55 220 76 55 221 77 55 222 79 55 223 72 56 224 73 56 225 77 56 226 76 56 227 75 57 228 74 57 229 78 57 230 79 57 231 74 58 232 72 58 233 76 58 234 78 58 235 79 59 236 77 59 237 73 59 238 75 59 239 83 60 240 81 60 241 80 60 242 82 60 243 86 61 244 84 61 245 85 61 246 87 61 247 80 62 248 81 62 249 85 62 250 84 62 251 83 63 252 82 63 253 86 63 254 87 63 255 82 64 256 80 64 257 84 64 258 86 64 259 87 65 260 85 65 261 81 65 262 83 65 263 91 66 264 89 66 265 88 66 266 90 66 267 94 67 268 92 67 269 93 67 270 95 67 271 88 68 272 89 68 273 93 68 274 92 68 275 91 69 276 90 69 277 94 69 278 95 69 279 90 70 280 88 70 281 92 70 282 94 70 283 95 71 284 93 71 285 89 71 286 91 71 287 99 72 288 97 72 289 96 72 290 98 72 291 102 73 292 100 73 293 101 73 294 103 73 295 96 74 296 97 74 297 101 74 298 100 74 299 99 75 300 98 75 301 102 75 302 103 75 303 98 76 304 96 76 305 100 76 306 102 76 307 103 77 308 101 77 309 97 77 310 99 77 311 107 78 312 105 78 313 104 78 314 106 78 315 110 79 316 108 79 317 109 79 318 111 79 319 104 80 320 105 80 321 109 80 322 108 80 323 107 81 324 106 81 325 110 81 326 111 81 327 106 82 328 104 82 329 108 82 330 110 82 331 111 83 332 109 83 333 105 83 334 107 83 335 115 84 336 113 84 337 112 84 338 114 84 339 118 85 340 116 85 341 117 85 342 119 85 343 112 86 344 113 86 345 117 86 346 116 86 347 115 87 348 114 87 349 118 87 350 119 87 351 114 88 352 112 88 353 116 88 354 118 88 355 119 89 356 117 89 357 113 89 358 115 89 359 123 90 360 121 90 361 120 90 362 122 90 363 126 91 364 124 91 365 125 91 366 127 91 367 120 92 368 121 92 369 125 92 370 124 92 371 123 93 372 122 93 373 126 93 374 127 93 375 122 94 376 120 94 377 124 94 378 126 94 379 127 95 380 125 95 381 121 95 382 123 95 383 131 96 384 129 96 385 128 96 386 130 96 387 134 97 388 132 97 389 133 97 390 135 97 391 128 98 392 129 98 393 133 98 394 132 98 395 131 99 396 130 99 397 134 99 398 135 99 399 130 100 400 128 100 401 132 100 402 134 100 403 135 101 404 133 101 405 129 101 406 131 101 407 139 102 408 137 102 409 136 102 410 138 102 411 142 103 412 140 103 413 141 103 414 143 103 415 136 104 416 137 104 417 141 104 418 140 104 419 139 105 420 138 105 421 142 105 422 143 105 423 138 106 424 136 106 425 140 106 426 142 106 427 143 107 428 141 107 429 137 107 430 139 107 431 147 108 432 145 108 433 144 108 434 146 108 435 150 109 436 148 109 437 149 109 438 151 109 439 144 110 440 145 110 441 149 110 442 148 110 443 147 111 444 146 111 445 150 111 446 151 111 447 146 112 448 144 112 449 148 112 450 150 112 451 151 113 452 149 113 453 145 113 454 147 113 455</p>
        </polylist>
      </mesh>
    </geometry>
  </library_geometries>
  <library_visual_scenes>
    <visual_scene id="Scene" name="Scene">
      <node id="f3daf40e-75e8-e2ee-5b09-33c7dfe33139" name="Main" type="NODE">
        <scale sid="scale">1 1 1</scale>
        <translate sid="location">0 0.5 0</translate>
        <rotate sid="rotationX">1 0 0 0</rotate>
        <rotate sid="rotationY">0 1 0 0</rotate>
        <rotate sid="rotationZ">0 0 1 0</rotate>
        <instance_geometry url="#f3daf40e-75e8-e2ee-5b09-33c7dfe33139-mesh" name="Main">
          <bind_material>
            <technique_common>
              <instance_material symbol="Material_0-material" target="#Material_0-material">
                <bind_vertex_input semantic="UVMap" input_semantic="TEXCOORD" input_set="0"/>
              </instance_material>
            </technique_common>
          </bind_material>
        </instance_geometry>
      </node>
    </visual_scene>
  </library_visual_scenes>
  <scene>
    <instance_visual_scene url="#Scene"/>
  </scene>
</COLLADA>
