<?xml version="1.0" encoding="utf-8"?>
<COLLADA xmlns="http://www.collada.org/2005/11/COLLADASchema" version="1.4.1" xmlns:xsi="http://www.w3.org/2001/XMLSchema-instance">
  <asset>
    <contributor>
      <author>Blockbench user</author>
      <authoring_tool>Blockbench</authoring_tool>
    </contributor>
    <created>2026-08-23T08:49:11.490Z</created>
    <modified>2026-08-23T08:49:11.490Z</modified>
    <unit name="meter" meter="1.0"/>
    <up_axis>Y_UP</up_axis>
  </asset>
  <library_effects>
    <effect id="Material_0-effect">
      <profile_COMMON>
        <newparam sid="Image_0-surface">
          <surface type="2D">
            <init_from>Image_0</init_from>
          </surface>
        </newparam>
        <newparam sid="Image_0-sampler">
          <sampler2D>
            <source>Image_0-surface</source>
          </sampler2D>
        </newparam>
        <technique sid="common">
          <lambert>
            <emission>
              <color sid="emission">0 0 0 1</color>
            </emission>
            <diffuse>
              <texture texture="Image_0-sampler" texcoord="UVMap"/>
            </diffuse>
            <index_of_refraction>
              <float sid="ior">1.45</float>
            </index_of_refraction>
          </lambert>
        </technique>
      </profile_COMMON>
    </effect>
  </library_effects>
  <library_images>
    <image id="Image_0" name="Image_0">
      <init_from>DFBlocks.png</init_from>
    </image>
  </library_images>
  <library_materials>
    <material id="Material_0-material" name="Material_0">
      <instance_effect url="#Material_0-effect"/>
    </material>
  </library_materials>
  <library_geometries>
    <geometry id="e02e6c2d-ec4c-3137-6a8d-2d0a6a6e495d-mesh" name="Legs">
      <mesh>
        <source id="e02e6c2d-ec4c-3137-6a8d-2d0a6a6e495d-mesh-positions">
          <float_array id="e02e6c2d-ec4c-3137-6a8d-2d0a6a6e495d-mesh-positions-array" count="216">0.046875 0.109375 0.375 0.046875 0.109375 -0.375 0.046875 0.015625 0.375 0.046875 0.015625 -0.375 -0.046875 0.109375 0.375 -0.046875 0.109375 -0.375 -0.046875 0.015625 0.375 -0.046875 0.015625 -0.375 -0.046875 0.109375 -0.375 -0.609375 0.109375 -0.375 -0.046875 0.015625 -0.375 -0.609375 0.015625 -0.375 -0.046875 0.109375 -0.28125 -0.609375 0.109375 -0.28125 -0.046875 0.015625 -0.28125 -0.609375 0.015625 -0.28125 -0.046875 0.109375 0.28125 -0.609375 0.109375 0.28125 -0.046875 0.015625 0.28125 -0.609375 0.015625 0.28125 -0.046875 0.109375 0.375 -0.609375 0.109375 0.375 -0.046875 0.015625 0.375 -0.609375 0.015625 0.375 -0.609375 0.515625 -0.375 -0.609375 0.015625 -0.375 -0.609375 0.515625 -0.28125 -0.609375 0.015625 -0.28125 -0.703125 0.515625 -0.375 -0.703125 0.015625 -0.375 -0.703125 0.515625 -0.28125 -0.703125 0.015625 -0.28125 -0.609375 0.515625 0.28125 -0.609375 0.015625 0.28125 -0.609375 0.515625 0.375 -0.609375 0.015625 0.375 -0.703125 0.515625 0.28125 -0.703125 0.015625 0.28125 -0.703125 0.515625 0.375 -0.703125 0.015625 0.375 -0.609375 0.515625 0.28125 -0.609375 0.515625 -0.28125 -0.609375 0.421875 0.28125 -0.609375 0.421875 -0.28125 -0.703125 0.515625 0.28125 -0.703125 0.515625 -0.28125 -0.703125 0.421875 0.28125 -0.703125 0.421875 -0.28125 -0.109375 0.515625 0.28125 -0.609375 0.515625 0.28125 -0.109375 0.421875 0.28125 -0.609375 0.421875 0.28125 -0.109375 0.515625 0.375 -0.609375 0.515625 0.375 -0.109375 0.421875 0.375 -0.609375 0.421875 0.375 -0.109375 0.515625 -0.375 -0.609375 0.515625 -0.375 -0.109375 0.421875 -0.375 -0.609375 0.421875 -0.375 -0.109375 0.515625 -0.28125 -0.609375 0.515625 -0.28125 -0.109375 0.421875 -0.28125 -0.609375 0.421875 -0.28125 -0.015625 0.515625 0.375 -0.015625 0.515625 -0.375 -0.015625 0.421875 0.375 -0.015625 0.421875 -0.375 -0.109375 0.515625 0.375 -0.109375 0.515625 -0.375 -0.109375 0.421875 0.375 -0.109375 0.421875 -0.375</float_array>
          <technique_common>
            <accessor source="#e02e6c2d-ec4c-3137-6a8d-2d0a6a6e495d-mesh-positions-array" count="72" stride="3">
              <param name="X" type="float"/>
              <param name="Y" type="float"/>
              <param name="Z" type="float"/>
            </accessor>
          </technique_common>
        </source>
        <source id="e02e6c2d-ec4c-3137-6a8d-2d0a6a6e495d-mesh-normals">
          <float_array id="e02e6c2d-ec4c-3137-6a8d-2d0a6a6e495d-mesh-normals-array" count="162">1 0 0 -1 0 0 0 1 0 0 -1 0 0 0 1 0 0 -1 0 0 -1 0 0 1 0 1 0 0 -1 0 1 0 0 -1 0 0 0 0 -1 0 0 1 0 1 0 0 -1 0 1 0 0 -1 0 0 1 0 0 -1 0 0 0 0 -1 0 0 1 0 1 0 0 -1 0 1 0 0 -1 0 0 0 0 -1 0 0 1 0 1 0 0 -1 0 1 0 0 -1 0 0 0 1 0 0 -1 0 0 0 1 0 0 -1 0 0 -1 0 0 1 0 1 0 0 -1 0 1 0 0 -1 0 0 0 0 -1 0 0 1 0 1 0 0 -1 0 1 0 0 -1 0 0 1 0 0 -1 0 0 0 1 0 0 -1 0 0 0 1 0 0 -1</float_array>
          <technique_common>
            <accessor source="#e02e6c2d-ec4c-3137-6a8d-2d0a6a6e495d-mesh-normals-array" count="54" stride="3">
              <param name="X" type="float"/>
              <param name="Y" type="float"/>
              <param name="Z" type="float"/>
            </accessor>
          </technique_common>
        </source>
        <source id="e02e6c2d-ec4c-3137-6a8d-2d0a6a6e495d-mesh-map-0">
          <float_array id="e02e6c2d-ec4c-3137-6a8d-2d0a6a6e495d-mesh-map-0-array" count="432">0.046875 0.931641 0.046875 0.9375 0 0.9375 0 0.931641 0.046875 0.931641 0.046875 0.9375 0 0.9375 0 0.931641 0.005859 0.890625 0.005859 0.9375 0 0.9375 0 0.890625 0.005859 0.890625 0.005859 0.9375 0 0.9375 0 0.890625 0.005859 0.931641 0.005859 0.9375 0 0.9375 0 0.931641 0.005859 0.931641 0.005859 0.9375 0 0.9375 0 0.931641 0.035156 0.931641 0.035156 0.9375 0 0.9375 0 0.931641 0.035156 0.931641 0.035156 0.9375 0 0.9375 0 0.931641 0.005859 0.902344 0.005859 0.9375 0 0.9375 0 0.902344 0.005859 0.902344 0.005859 0.9375 0 0.9375 0 0.902344 0.005859 0.931641 0.005859 0.9375 0 0.9375 0 0.931641 0.005859 0.931641 0.005859 0.9375 0 0.9375 0 0.931641 0.035156 0.931641 0.035156 0.9375 0 0.9375 0 0.931641 0.035156 0.931641 0.035156 0.9375 0 0.9375 0 0.931641 0.005859 0.902344 0.005859 0.9375 0 0.9375 0 0.902344 0.005859 0.902344 0.005859 0.9375 0 0.9375 0 0.902344 0.005859 0.931641 0.005859 0.9375 0 0.9375 0 0.931641 0.005859 0.931641 0.005859 0.9375 0 0.9375 0 0.931641 0.03125 0.931641 0.03125 0.9375 0 0.9375 0 0.931641 0.03125 0.931641 0.03125 0.9375 0 0.9375 0 0.931641 0.005859 0.90625 0.005859 0.9375 0 0.9375 0 0.90625 0.005859 0.90625 0.005859 0.9375 0 0.9375 0 0.90625 0.005859 0.931641 0.005859 0.9375 0 0.9375 0 0.931641 0.005859 0.931641 0.005859 0.9375 0 0.9375 0 0.931641 0.03125 0.931641 0.03125 0.9375 0 0.9375 0 0.931641 0.03125 0.931641 0.03125 0.9375 0 0.9375 0 0.931641 0.005859 0.90625 0.005859 0.9375 0 0.9375 0 0.90625 0.005859 0.90625 0.005859 0.9375 0 0.9375 0 0.90625 0.005859 0.931641 0.005859 0.9375 0 0.9375 0 0.931641 0.005859 0.931641 0.005859 0.9375 0 0.9375 0 0.931641 0.035156 0.931641 0.035156 0.9375 0 0.9375 0 0.931641 0.035156 0.931641 0.035156 0.9375 0 0.9375 0 0.931641 0.005859 0.902344 0.005859 0.9375 0 0.9375 0 0.902344 0.005859 0.902344 0.005859 0.9375 0 0.9375 0 0.902344 0.005859 0.931641 0.005859 0.9375 0 0.9375 0 0.931641 0.005859 0.931641 0.005859 0.9375 0 0.9375 0 0.931641 0.03125 0.931641 0.03125 0.9375 0 0.9375 0 0.931641 0.03125 0.931641 0.03125 0.9375 0 0.9375 0 0.931641 0.005859 0.90625 0.005859 0.9375 0 0.9375 0 0.90625 0.005859 0.90625 0.005859 0.9375 0 0.9375 0 0.90625 0.005859 0.931641 0.005859 0.9375 0 0.9375 0 0.931641 0.005859 0.931641 0.005859 0.9375 0 0.9375 0 0.931641 0.03125 0.931641 0.03125 0.9375 0 0.9375 0 0.931641 0.03125 0.931641 0.03125 0.9375 0 0.9375 0 0.931641 0.005859 0.90625 0.005859 0.9375 0 0.9375 0 0.90625 0.005859 0.90625 0.005859 0.9375 0 0.9375 0 0.90625 0.005859 0.931641 0.005859 0.9375 0 0.9375 0 0.931641 0.005859 0.931641 0.005859 0.9375 0 0.9375 0 0.931641 0.046875 0.931641 0.046875 0.9375 0 0.9375 0 0.931641 0.046875 0.931641 0.046875 0.9375 0 0.9375 0 0.931641 0.005859 0.890625 0.005859 0.9375 0 0.9375 0 0.890625 0.005859 0.890625 0.005859 0.9375 0 0.9375 0 0.890625 0.005859 0.931641 0.005859 0.9375 0 0.9375 0 0.931641 0.005859 0.931641 0.005859 0.9375 0 0.9375 0 0.931641</float_array>
          <technique_common>
            <accessor source="#e02e6c2d-ec4c-3137-6a8d-2d0a6a6e495d-mesh-map-0-array" count="216" stride="2">
              <param name="S" type="float"/>
              <param name="T" type="float"/>
            </accessor>
          </technique_common>
        </source>
        <vertices id="e02e6c2d-ec4c-3137-6a8d-2d0a6a6e495d-mesh-vertices">
          <input semantic="POSITION" source="#e02e6c2d-ec4c-3137-6a8d-2d0a6a6e495d-mesh-positions"/>
        </vertices>
        <polylist material="Material_0-material" count="6">
          <input semantic="VERTEX" source="#e02e6c2d-ec4c-3137-6a8d-2d0a6a6e495d-mesh-vertices" offset="0"/>
          <input semantic="NORMAL" source="#e02e6c2d-ec4c-3137-6a8d-2d0a6a6e495d-mesh-normals" offset="1"/>
          <input semantic="TEXCOORD" source="#e02e6c2d-ec4c-3137-6a8d-2d0a6a6e495d-mesh-map-0" offset="2" set="0"/>
          <vcount>4 4 4 4 4 4 4 4 4 4 4 4 4 4 4 4 4 4 4 4 4 4 4 4 4 4 4 4 4 4 4 4 4 4 4 4 4 4 4 4 4 4 4 4 4 4 4 4 4 4 4 4 4 4</vcount>
          <p>3 0 0 1 0 1 0 0 2 2 0 3 6 1 4 4 1 5 5 1 6 7 1 7 0 2 8 1 2 9 5 2 10 4 2 11 3 3 12 2 3 13 6 3 14 7 3 15 2 4 16 0 4 17 4 4 18 6 4 19 7 5 20 5 5 21 1 5 22 3 5 23 11 6 24 9 6 25 8 6 26 10 6 27 14 7 28 12 7 29 13 7 30 15 7 31 8 8 32 9 8 33 13 8 34 12 8 35 11 9 36 10 9 37 14 9 38 15 9 39 10 10 40 8 10 41 12 10 42 14 10 43 15 11 44 13 11 45 9 11 46 11 11 47 19 12 48 17 12 49 16 12 50 18 12 51 22 13 52 20 13 53 21 13 54 23 13 55 16 14 56 17 14 57 21 14 58 20 14 59 19 15 60 18 15 61 22 15 62 23 15 63 18 16 64 16 16 65 20 16 66 22 16 67 23 17 68 21 17 69 17 17 70 19 17 71 27 18 72 25 18 73 24 18 74 26 18 75 30 19 76 28 19 77 29 19 78 31 19 79 24 20 80 25 20 81 29 20 82 28 20 83 27 21 84 26 21 85 30 21 86 31 21 87 26 22 88 24 22 89 28 22 90 30 22 91 31 23 92 29 23 93 25 23 94 27 23 95 35 24 96 33 24 97 32 24 98 34 24 99 38 25 100 36 25 101 37 25 102 39 25 103 32 26 104 33 26 105 37 26 106 36 26 107 35 27 108 34 27 109 38 27 110 39 27 111 34 28 112 32 28 113 36 28 114 38 28 115 39 29 116 37 29 117 33 29 118 35 29 119 43 30 120 41 30 121 40 30 122 42 30 123 46 31 124 44 31 125 45 31 126 47 31 127 40 32 128 41 32 129 45 32 130 44 32 131 43 33 132 42 33 133 46 33 134 47 33 135 42 34 136 40 34 137 44 34 138 46 34 139 47 35 140 45 35 141 41 35 142 43 35 143 51 36 144 49 36 145 48 36 146 50 36 147 54 37 148 52 37 149 53 37 150 55 37 151 48 38 152 49 38 153 53 38 154 52 38 155 51 39 156 50 39 157 54 39 158 55 39 159 50 40 160 48 40 161 52 40 162 54 40 163 55 41 164 53 41 165 49 41 166 51 41 167 59 42 168 57 42 169 56 42 170 58 42 171 62 43 172 60 43 173 61 43 174 63 43 175 56 44 176 57 44 177 61 44 178 60 44 179 59 45 180 58 45 181 62 45 182 63 45 183 58 46 184 56 46 185 60 46 186 62 46 187 63 47 188 61 47 189 57 47 190 59 47 191 67 48 192 65 48 193 64 48 194 66 48 195 70 49 196 68 49 197 69 49 198 71 49 199 64 50 200 65 50 201 69 50 202 68 50 203 67 51 204 66 51 205 70 51 206 71 51 207 66 52 208 64 52 209 68 52 210 70 52 211 71 53 212 69 53 213 65 53 214 67 53 215</p>
        </polylist>
      </mesh>
    </geometry>
    <geometry id="6837a7e5-9e91-40ae-1f88-00053d9d5b5c-mesh" name="Top">
      <mesh>
        <source id="6837a7e5-9e91-40ae-1f88-00053d9d5b5c-mesh-positions">
          <float_array id="6837a7e5-9e91-40ae-1f88-00053d9d5b5c-mesh-positions-array" count="120">0.046875 0.34375 0.375 0.046875 0.34375 -0.375 0.046875 -0.21875 0.375 0.046875 -0.21875 -0.375 -0.046875 0.34375 0.375 -0.046875 0.34375 -0.375 -0.046875 -0.21875 0.375 -0.046875 -0.21875 -0.375 0.046875 0.40625 0.3125 0.046875 0.40625 -0.3125 0.046875 0.34375 0.375 0.046875 0.34375 -0.375 -0.046875 0.40625 0.3125 -0.046875 0.40625 -0.3125 -0.046875 0.34375 0.375 -0.046875 0.34375 -0.375 0.046875 -0.21875 0.375 0.046875 -0.21875 -0.375 0.046875 -0.3125 0.375 0.046875 -0.3125 -0.375 -0.578125 -0.21875 0.375 -0.578125 -0.21875 -0.375 -0.578125 -0.3125 0.375 -0.578125 -0.3125 -0.375 -0.578125 -0.21875 0.375 -0.578125 -0.21875 -0.375 -0.578125 -0.3125 0.375 -0.578125 -0.3125 -0.375 -0.609375 -0.21875 0.375 -0.609375 -0.21875 -0.375 -0.640625 -0.3125 0.375 -0.640625 -0.3125 -0.375 -0.578125 -0.265625 -0.375 -0.578125 -0.265625 0.375 -0.640625 -0.265625 0.375 -0.640625 -0.265625 -0.375 -0.609375 -0.265625 -0.375 -0.609375 -0.265625 0.375 -0.609375 -0.3125 0.375 -0.609375 -0.3125 -0.375</float_array>
          <technique_common>
            <accessor source="#6837a7e5-9e91-40ae-1f88-00053d9d5b5c-mesh-positions-array" count="40" stride="3">
              <param name="X" type="float"/>
              <param name="Y" type="float"/>
              <param name="Z" type="float"/>
            </accessor>
          </technique_common>
        </source>
        <source id="6837a7e5-9e91-40ae-1f88-00053d9d5b5c-mesh-normals">
          <float_array id="6837a7e5-9e91-40ae-1f88-00053d9d5b5c-mesh-normals-array" count="99">1 0 0 -1 0 0 0 1 0 0 -1 0 0 0 1 0 0 -1 1 0 0 -1 0 0 0 1 0 0 -1 0 0 0.707107 0.707107 0 0.707107 -0.707107 1 0 0 -1 0 0 0 1 0 0 -1 0 0 0 1 0 0 -1 1 0 0 0 -1 0 1 0 0 0 0 1 -1 0 0 0 0 -1 -0.83205 0.5547 0 0 0 -1 0 1 0 0 0 1 0 0 1 0 -1 0 0 0 -1 0 0 -1 0 0 1</float_array>
          <technique_common>
            <accessor source="#6837a7e5-9e91-40ae-1f88-00053d9d5b5c-mesh-normals-array" count="33" stride="3">
              <param name="X" type="float"/>
              <param name="Y" type="float"/>
              <param name="Z" type="float"/>
            </accessor>
          </technique_common>
        </source>
        <source id="6837a7e5-9e91-40ae-1f88-00053d9d5b5c-mesh-map-0">
          <float_array id="6837a7e5-9e91-40ae-1f88-00053d9d5b5c-mesh-map-0-array" count="260">0.044922 0.777344 0.044922 0.8125 0 0.8125 0 0.777344 0.044922 0.777344 0.044922 0.8125 0 0.8125 0 0.777344 0.005859 0.765625 0.005859 0.8125 0 0.8125 0 0.765625 0.005859 0.765625 0.005859 0.8125 0 0.8125 0 0.765625 0.005859 0.777344 0.005859 0.8125 0 0.8125 0 0.777344 0.005859 0.777344 0.005859 0.8125 0 0.8125 0 0.777344 0.054688 0.808594 0.050781 0.8125 0.011719 0.8125 0.007813 0.808594 0.054688 0.808594 0.050781 0.8125 0.011719 0.8125 0.007813 0.808594 0.005859 0.773438 0.005859 0.8125 0 0.8125 0 0.773438 0.005859 0.773438 0.005859 0.8125 0 0.8125 0 0.773438 0.005859 0.808594 0.005859 0.8125 0 0.8125 0 0.808594 0.005859 0.808594 0.005859 0.8125 0 0.8125 0 0.808594 0.046875 0.806641 0.046875 0.8125 0 0.8125 0 0.806641 0.046875 0.806641 0.046875 0.8125 0 0.8125 0 0.806641 0.039063 0.765625 0.039063 0.8125 0 0.8125 0 0.765625 0.039063 0.765625 0.039063 0.8125 0 0.8125 0 0.765625 0.039063 0.806641 0.039063 0.8125 0 0.8125 0 0.806641 0.039063 0.806641 0.039063 0.8125 0 0.8125 0 0.806641 0 0.8125 0 0.80957 0.046875 0.80957 0.046875 0.8125 0 0.765625 0.001953 0.765625 0.001953 0.8125 0 0.8125 0.046875 0.806641 0.046875 0.80957 0 0.80957 0 0.806641 0 0.806641 0.001953 0.806641 0.001953 0.80957 0 0.80957 0.046875 0.806641 0.046875 0.80957 0 0.80957 0 0.806641 0.003906 0.80957 0.001953 0.80957 0.001953 0.806641 0.003906 0.806641 0 0.8125 0 0.80957 0.046875 0.80957 0.046875 0.8125 0 0.80957 0.001953 0.80957 0.001953 0.8125 0 0.8125 0.003906 0.8125 0.001953 0.8125 0.001953 0.765625 0.003906 0.765625 0.003906 0.8125 0.001953 0.8125 0.001953 0.80957 0.003906 0.80957 0.003906 0.80957 0.001953 0.80957 0.001953 0.806641 0.003906 0.806641 0.003906 0.8125 0.001953 0.8125 0.001953 0.765625 0.003906 0.765625 0 0.806641 0.001953 0.806641 0.001953 0.80957 0 0.80957 0.001953 0.8125 0.001953 0.80957 0.003906 0.80957 0 0.80957 0.001953 0.80957 0.001953 0.8125</float_array>
          <technique_common>
            <accessor source="#6837a7e5-9e91-40ae-1f88-00053d9d5b5c-mesh-map-0-array" count="130" stride="2">
              <param name="S" type="float"/>
              <param name="T" type="float"/>
            </accessor>
          </technique_common>
        </source>
        <vertices id="6837a7e5-9e91-40ae-1f88-00053d9d5b5c-mesh-vertices">
          <input semantic="POSITION" source="#6837a7e5-9e91-40ae-1f88-00053d9d5b5c-mesh-positions"/>
        </vertices>
        <polylist material="Material_0-material" count="6">
          <input semantic="VERTEX" source="#6837a7e5-9e91-40ae-1f88-00053d9d5b5c-mesh-vertices" offset="0"/>
          <input semantic="NORMAL" source="#6837a7e5-9e91-40ae-1f88-00053d9d5b5c-mesh-normals" offset="1"/>
          <input semantic="TEXCOORD" source="#6837a7e5-9e91-40ae-1f88-00053d9d5b5c-mesh-map-0" offset="2" set="0"/>
          <vcount>4 4 4 4 4 4 4 4 4 4 4 4 4 4 4 4 4 4 4 4 4 4 4 4 4 4 4 4 4 4 4 3 3</vcount>
          <p>3 0 0 1 0 1 0 0 2 2 0 3 6 1 4 4 1 5 5 1 6 7 1 7 0 2 8 1 2 9 5 2 10 4 2 11 3 3 12 2 3 13 6 3 14 7 3 15 2 4 16 0 4 17 4 4 18 6 4 19 7 5 20 5 5 21 1 5 22 3 5 23 11 6 24 9 6 25 8 6 26 10 6 27 14 7 28 12 7 29 13 7 30 15 7 31 8 8 32 9 8 33 13 8 34 12 8 35 11 9 36 10 9 37 14 9 38 15 9 39 10 10 40 8 10 41 12 10 42 14 10 43 15 11 44 13 11 45 9 11 46 11 11 47 19 12 48 17 12 49 16 12 50 18 12 51 22 13 52 20 13 53 21 13 54 23 13 55 16 14 56 17 14 57 21 14 58 20 14 59 19 15 60 18 15 61 22 15 62 23 15 63 18 16 64 16 16 65 20 16 66 22 16 67 23 17 68 21 17 69 17 17 70 19 17 71 24 18 72 33 18 73 32 18 74 25 18 75 31 19 76 39 19 77 38 19 78 30 19 79 27 20 80 32 20 81 33 20 82 26 20 83 30 21 84 38 21 85 37 21 86 34 21 87 30 22 88 34 22 89 35 22 90 31 22 91 35 23 92 36 23 93 39 23 94 31 23 95 29 24 96 35 24 97 34 24 98 28 24 99 32 25 100 36 25 101 29 25 102 25 25 103 25 26 104 29 26 105 28 26 106 24 26 107 24 27 108 28 27 109 37 27 110 33 27 111 33 28 112 37 28 113 38 28 114 26 28 115 26 29 116 38 29 117 39 29 118 27 29 119 27 30 120 39 30 121 36 30 122 32 30 123 29 31 124 36 31 125 35 31 126 34 32 127 37 32 128 28 32 129</p>
        </polylist>
      </mesh>
    </geometry>
  </library_geometries>
  <library_visual_scenes>
    <visual_scene id="Scene" name="Scene">
      <node id="e02e6c2d-ec4c-3137-6a8d-2d0a6a6e495d" name="Legs" type="NODE">
        <scale sid="scale">1 1 1</scale>
        <translate sid="location">0.328125 -0.015625 0</translate>
        <rotate sid="rotationX">1 0 0 0</rotate>
        <rotate sid="rotationY">0 1 0 0</rotate>
        <rotate sid="rotationZ">0 0 1 0</rotate>
        <instance_geometry url="#e02e6c2d-ec4c-3137-6a8d-2d0a6a6e495d-mesh" name="Legs">
          <bind_material>
            <technique_common>
              <instance_material symbol="Material_0-material" target="#Material_0-material">
                <bind_vertex_input semantic="UVMap" input_semantic="TEXCOORD" input_set="0"/>
              </instance_material>
            </technique_common>
          </bind_material>
        </instance_geometry>
      </node>
      <node id="6837a7e5-9e91-40ae-1f88-00053d9d5b5c" name="Top" type="NODE">
        <scale sid="scale">1 1 1</scale>
        <translate sid="location">0.265625 0.8125 0</translate>
        <rotate sid="rotationX">1 0 0 0</rotate>
        <rotate sid="rotationY">0 1 0 0</rotate>
        <rotate sid="rotationZ">0 0 1 0</rotate>
        <instance_geometry url="#6837a7e5-9e91-40ae-1f88-00053d9d5b5c-mesh" name="Top">
          <bind_material>
            <technique_common>
              <instance_material symbol="Material_0-material" target="#Material_0-material">
                <bind_vertex_input semantic="UVMap" input_semantic="TEXCOORD" input_set="0"/>
              </instance_material>
            </technique_common>
          </bind_material>
        </instance_geometry>
      </node>
    </visual_scene>
  </library_visual_scenes>
  <scene>
    <instance_visual_scene url="#Scene"/>
  </scene>
</COLLADA>
