<?xml version="1.0" encoding="utf-8"?>
<COLLADA xmlns="http://www.collada.org/2005/11/COLLADASchema" version="1.4.1" xmlns:xsi="http://www.w3.org/2001/XMLSchema-instance">
  <asset>
    <contributor>
      <author>Blockbench user</author>
      <authoring_tool>Blockbench</authoring_tool>
    </contributor>
    <created>2026-08-23T07:25:19.782Z</created>
    <modified>2026-08-23T07:25:19.782Z</modified>
    <unit name="meter" meter="1.0"/>
    <up_axis>Y_UP</up_axis>
  </asset>
  <library_effects>
    <effect id="Material_0-effect">
      <profile_COMMON>
        <newparam sid="Image_0-surface">
          <surface type="2D">
            <init_from>Image_0</init_from>
          </surface>
        </newparam>
        <newparam sid="Image_0-sampler">
          <sampler2D>
            <source>Image_0-surface</source>
          </sampler2D>
        </newparam>
        <technique sid="common">
          <lambert>
            <emission>
              <color sid="emission">0 0 0 1</color>
            </emission>
            <diffuse>
              <texture texture="Image_0-sampler" texcoord="UVMap"/>
            </diffuse>
            <index_of_refraction>
              <float sid="ior">1.45</float>
            </index_of_refraction>
          </lambert>
        </technique>
      </profile_COMMON>
    </effect>
  </library_effects>
  <library_images>
    <image id="Image_0" name="Image_0">
      <init_from>DFBlocks.png</init_from>
    </image>
  </library_images>
  <library_materials>
    <material id="Material_0-material" name="Material_0">
      <instance_effect url="#Material_0-effect"/>
    </material>
  </library_materials>
  <library_geometries>
    <geometry id="0336b5c3-27f5-e9d4-0941-781e97de715f-mesh" name="Top">
      <mesh>
        <source id="0336b5c3-27f5-e9d4-0941-781e97de715f-mesh-positions">
          <float_array id="0336b5c3-27f5-e9d4-0941-781e97de715f-mesh-positions-array" count="120">0.4375 0.125 0.4375 0.4375 0.125 -0.4375 0.4375 0 0.4375 0.4375 0 -0.4375 -0.4375 0.125 0.4375 -0.4375 0.125 -0.4375 -0.4375 0 0.4375 -0.4375 0 -0.4375 0.4375 0.125 -0.4375 0.4375 0.125 -0.5 0.4375 0 -0.4375 0.4375 0 -0.5 -0.4375 0.125 -0.4375 -0.4375 0.125 -0.5 -0.4375 0 -0.4375 -0.4375 0 -0.5 0.4375 0.125 0.5 0.4375 0.125 0.4375 0.4375 0 0.5 0.4375 0 0.4375 -0.4375 0.125 0.5 -0.4375 0.125 0.4375 -0.4375 0 0.5 -0.4375 0 0.4375 -0.4375 0.125 -0.5 -0.5 0.125 -0.4375 -0.4375 0 -0.5 -0.5 0 -0.4375 -0.4375 0.125 0.5 -0.5 0.125 0.4375 -0.4375 0 0.5 -0.5 0 0.4375 0.4375 0 -0.5 0.5 0 -0.4375 0.4375 0.125 -0.5 0.5 0.125 -0.4375 0.4375 0 0.5 0.5 0 0.4375 0.4375 0.125 0.5 0.5 0.125 0.4375</float_array>
          <technique_common>
            <accessor source="#0336b5c3-27f5-e9d4-0941-781e97de715f-mesh-positions-array" count="40" stride="3">
              <param name="X" type="float"/>
              <param name="Y" type="float"/>
              <param name="Z" type="float"/>
            </accessor>
          </technique_common>
        </source>
        <source id="0336b5c3-27f5-e9d4-0941-781e97de715f-mesh-normals">
          <float_array id="0336b5c3-27f5-e9d4-0941-781e97de715f-mesh-normals-array" count="90">1 0 0 -1 0 0 0 1 0 0 -1 0 0 0 1 0 0 -1 1 0 0 -1 0 0 0 1 0 0 -1 0 0 0 1 0 0 -1 1 0 0 -1 0 0 0 1 0 0 -1 0 0 0 1 0 0 -1 -0.707107 0 -0.707107 -0.707107 0 0.707107 0 -1 0 -1 0 0 1 0 0 0 1 0 0.707107 0 -0.707107 0.707107 0 0.707107 0 1 0 1 0 0 -1 0 0 0 -1 0</float_array>
          <technique_common>
            <accessor source="#0336b5c3-27f5-e9d4-0941-781e97de715f-mesh-normals-array" count="30" stride="3">
              <param name="X" type="float"/>
              <param name="Y" type="float"/>
              <param name="Z" type="float"/>
            </accessor>
          </technique_common>
        </source>
        <source id="0336b5c3-27f5-e9d4-0941-781e97de715f-mesh-map-0">
          <float_array id="0336b5c3-27f5-e9d4-0941-781e97de715f-mesh-map-0-array" count="240">0.058594 0.800781 0.058594 0.808594 0.003906 0.808594 0.003906 0.800781 0.058594 0.800781 0.058594 0.808594 0.003906 0.808594 0.003906 0.800781 0.058594 0.753906 0.058594 0.808594 0.003906 0.808594 0.003906 0.753906 0.058594 0.753906 0.058594 0.808594 0.003906 0.808594 0.003906 0.753906 0.058594 0.800781 0.058594 0.808594 0.003906 0.808594 0.003906 0.800781 0.058594 0.800781 0.058594 0.808594 0.003906 0.808594 0.003906 0.800781 0.007813 0.804688 0.007813 0.8125 0.003906 0.8125 0.003906 0.804688 0.007813 0.804688 0.007813 0.8125 0.003906 0.8125 0.003906 0.804688 0.058594 0.808594 0.058594 0.8125 0.003906 0.8125 0.003906 0.808594 0.058594 0.808594 0.058594 0.8125 0.003906 0.8125 0.003906 0.808594 0.058594 0.804688 0.058594 0.8125 0.003906 0.8125 0.003906 0.804688 0.058594 0.804688 0.058594 0.8125 0.003906 0.8125 0.003906 0.804688 0.007813 0.757813 0.007813 0.75 0.003906 0.75 0.003906 0.757813 0.007813 0.757813 0.007813 0.75 0.003906 0.75 0.003906 0.757813 0.058594 0.753906 0.058594 0.75 0.003906 0.75 0.003906 0.753906 0.058594 0.753906 0.058594 0.75 0.003906 0.75 0.003906 0.753906 0.058594 0.757813 0.058594 0.75 0.003906 0.75 0.003906 0.757813 0.058594 0.757813 0.058594 0.75 0.003906 0.75 0.003906 0.757813 0.007813 0.804688 0.007813 0.8125 0.003906 0.8125 0.003906 0.804688 0.007813 0.804688 0.007813 0.8125 0.003906 0.8125 0.003906 0.804688 0.058594 0.8125 0.0625 0.808594 0 0.808594 0.003906 0.8125 0.058594 0.804688 0.058594 0.8125 0.003906 0.8125 0.003906 0.804688 0.058594 0.804688 0.058594 0.8125 0.003906 0.8125 0.003906 0.804688 0.058594 0.8125 0.003906 0.8125 0 0.808594 0.0625 0.808594 0.007813 0.757813 0.007813 0.75 0.003906 0.75 0.003906 0.757813 0.007813 0.757813 0.007813 0.75 0.003906 0.75 0.003906 0.757813 0.058594 0.75 0.0625 0.753906 0 0.753906 0.003906 0.75 0.058594 0.757813 0.058594 0.75 0.003906 0.75 0.003906 0.757813 0.058594 0.757813 0.058594 0.75 0.003906 0.75 0.003906 0.757813 0.058594 0.75 0.003906 0.75 0 0.753906 0.0625 0.753906</float_array>
          <technique_common>
            <accessor source="#0336b5c3-27f5-e9d4-0941-781e97de715f-mesh-map-0-array" count="120" stride="2">
              <param name="S" type="float"/>
              <param name="T" type="float"/>
            </accessor>
          </technique_common>
        </source>
        <vertices id="0336b5c3-27f5-e9d4-0941-781e97de715f-mesh-vertices">
          <input semantic="POSITION" source="#0336b5c3-27f5-e9d4-0941-781e97de715f-mesh-positions"/>
        </vertices>
        <polylist material="Material_0-material" count="6">
          <input semantic="VERTEX" source="#0336b5c3-27f5-e9d4-0941-781e97de715f-mesh-vertices" offset="0"/>
          <input semantic="NORMAL" source="#0336b5c3-27f5-e9d4-0941-781e97de715f-mesh-normals" offset="1"/>
          <input semantic="TEXCOORD" source="#0336b5c3-27f5-e9d4-0941-781e97de715f-mesh-map-0" offset="2" set="0"/>
          <vcount>4 4 4 4 4 4 4 4 4 4 4 4 4 4 4 4 4 4 4 4 4 4 4 4 4 4 4 4 4 4</vcount>
          <p>3 0 0 1 0 1 0 0 2 2 0 3 6 1 4 4 1 5 5 1 6 7 1 7 0 2 8 1 2 9 5 2 10 4 2 11 3 3 12 2 3 13 6 3 14 7 3 15 2 4 16 0 4 17 4 4 18 6 4 19 7 5 20 5 5 21 1 5 22 3 5 23 11 6 24 9 6 25 8 6 26 10 6 27 14 7 28 12 7 29 13 7 30 15 7 31 8 8 32 9 8 33 13 8 34 12 8 35 11 9 36 10 9 37 14 9 38 15 9 39 10 10 40 8 10 41 12 10 42 14 10 43 15 11 44 13 11 45 9 11 46 11 11 47 19 12 48 17 12 49 16 12 50 18 12 51 22 13 52 20 13 53 21 13 54 23 13 55 16 14 56 17 14 57 21 14 58 20 14 59 19 15 60 18 15 61 22 15 62 23 15 63 18 16 64 16 16 65 20 16 66 22 16 67 23 17 68 21 17 69 17 17 70 19 17 71 27 18 72 25 18 73 24 18 74 26 18 75 30 19 76 28 19 77 29 19 78 31 19 79 27 20 80 26 20 81 30 20 82 31 20 83 31 21 84 29 21 85 25 21 86 27 21 87 26 22 88 24 22 89 28 22 90 30 22 91 25 23 92 29 23 93 28 23 94 24 23 95 35 24 96 33 24 97 32 24 98 34 24 99 38 25 100 36 25 101 37 25 102 39 25 103 35 26 104 34 26 105 38 26 106 39 26 107 39 27 108 37 27 109 33 27 110 35 27 111 34 28 112 32 28 113 36 28 114 38 28 115 33 29 116 37 29 117 36 29 118 32 29 119</p>
        </polylist>
      </mesh>
    </geometry>
    <geometry id="9b234848-39d8-a7a1-9a80-b1c948c4c9f9-mesh" name="Legs">
      <mesh>
        <source id="9b234848-39d8-a7a1-9a80-b1c948c4c9f9-mesh-positions">
          <float_array id="9b234848-39d8-a7a1-9a80-b1c948c4c9f9-mesh-positions-array" count="96">0.046875 0.5 0.046875 0.046875 0.5 -0.046875 0.046875 -0.375 0.046875 0.046875 -0.375 -0.046875 -0.046875 0.5 0.046875 -0.046875 0.5 -0.046875 -0.046875 -0.375 0.046875 -0.046875 -0.375 -0.046875 0.046875 0.5 0.828125 0.046875 0.5 0.734375 0.046875 -0.375 0.828125 0.046875 -0.375 0.734375 -0.046875 0.5 0.828125 -0.046875 0.5 0.734375 -0.046875 -0.375 0.828125 -0.046875 -0.375 0.734375 0.828125 0.5 0.046875 0.828125 0.5 -0.046875 0.828125 -0.375 0.046875 0.828125 -0.375 -0.046875 0.734375 0.5 0.046875 0.734375 0.5 -0.046875 0.734375 -0.375 0.046875 0.734375 -0.375 -0.046875 0.828125 0.5 0.828125 0.828125 0.5 0.734375 0.828125 -0.375 0.828125 0.828125 -0.375 0.734375 0.734375 0.5 0.828125 0.734375 0.5 0.734375 0.734375 -0.375 0.828125 0.734375 -0.375 0.734375</float_array>
          <technique_common>
            <accessor source="#9b234848-39d8-a7a1-9a80-b1c948c4c9f9-mesh-positions-array" count="32" stride="3">
              <param name="X" type="float"/>
              <param name="Y" type="float"/>
              <param name="Z" type="float"/>
            </accessor>
          </technique_common>
        </source>
        <source id="9b234848-39d8-a7a1-9a80-b1c948c4c9f9-mesh-normals">
          <float_array id="9b234848-39d8-a7a1-9a80-b1c948c4c9f9-mesh-normals-array" count="72">1 0 0 -1 0 0 0 1 0 0 -1 0 0 0 1 0 0 -1 1 0 0 -1 0 0 0 1 0 0 -1 0 0 0 1 0 0 -1 1 0 0 -1 0 0 0 1 0 0 -1 0 0 0 1 0 0 -1 1 0 0 -1 0 0 0 1 0 0 -1 0 0 0 1 0 0 -1</float_array>
          <technique_common>
            <accessor source="#9b234848-39d8-a7a1-9a80-b1c948c4c9f9-mesh-normals-array" count="24" stride="3">
              <param name="X" type="float"/>
              <param name="Y" type="float"/>
              <param name="Z" type="float"/>
            </accessor>
          </technique_common>
        </source>
        <source id="9b234848-39d8-a7a1-9a80-b1c948c4c9f9-mesh-map-0">
          <float_array id="9b234848-39d8-a7a1-9a80-b1c948c4c9f9-mesh-map-0-array" count="192">0.005859 0.882813 0.005859 0.9375 0 0.9375 0 0.882813 0.005859 0.882813 0.005859 0.9375 0 0.9375 0 0.882813 0.005859 0.931641 0.005859 0.9375 0 0.9375 0 0.931641 0.005859 0.931641 0.005859 0.9375 0 0.9375 0 0.931641 0.005859 0.882813 0.005859 0.9375 0 0.9375 0 0.882813 0.005859 0.882813 0.005859 0.9375 0 0.9375 0 0.882813 0.005859 0.882813 0.005859 0.9375 0 0.9375 0 0.882813 0.005859 0.882813 0.005859 0.9375 0 0.9375 0 0.882813 0.005859 0.931641 0.005859 0.9375 0 0.9375 0 0.931641 0.005859 0.931641 0.005859 0.9375 0 0.9375 0 0.931641 0.005859 0.882813 0.005859 0.9375 0 0.9375 0 0.882813 0.005859 0.882813 0.005859 0.9375 0 0.9375 0 0.882813 0.005859 0.882813 0.005859 0.9375 0 0.9375 0 0.882813 0.005859 0.882813 0.005859 0.9375 0 0.9375 0 0.882813 0.005859 0.931641 0.005859 0.9375 0 0.9375 0 0.931641 0.005859 0.931641 0.005859 0.9375 0 0.9375 0 0.931641 0.005859 0.882813 0.005859 0.9375 0 0.9375 0 0.882813 0.005859 0.882813 0.005859 0.9375 0 0.9375 0 0.882813 0.005859 0.882813 0.005859 0.9375 0 0.9375 0 0.882813 0.005859 0.882813 0.005859 0.9375 0 0.9375 0 0.882813 0.005859 0.931641 0.005859 0.9375 0 0.9375 0 0.931641 0.005859 0.931641 0.005859 0.9375 0 0.9375 0 0.931641 0.005859 0.882813 0.005859 0.9375 0 0.9375 0 0.882813 0.005859 0.882813 0.005859 0.9375 0 0.9375 0 0.882813</float_array>
          <technique_common>
            <accessor source="#9b234848-39d8-a7a1-9a80-b1c948c4c9f9-mesh-map-0-array" count="96" stride="2">
              <param name="S" type="float"/>
              <param name="T" type="float"/>
            </accessor>
          </technique_common>
        </source>
        <vertices id="9b234848-39d8-a7a1-9a80-b1c948c4c9f9-mesh-vertices">
          <input semantic="POSITION" source="#9b234848-39d8-a7a1-9a80-b1c948c4c9f9-mesh-positions"/>
        </vertices>
        <polylist material="Material_0-material" count="6">
          <input semantic="VERTEX" source="#9b234848-39d8-a7a1-9a80-b1c948c4c9f9-mesh-vertices" offset="0"/>
          <input semantic="NORMAL" source="#9b234848-39d8-a7a1-9a80-b1c948c4c9f9-mesh-normals" offset="1"/>
          <input semantic="TEXCOORD" source="#9b234848-39d8-a7a1-9a80-b1c948c4c9f9-mesh-map-0" offset="2" set="0"/>
          <vcount>4 4 4 4 4 4 4 4 4 4 4 4 4 4 4 4 4 4 4 4 4 4 4 4</vcount>
          <p>3 0 0 1 0 1 0 0 2 2 0 3 6 1 4 4 1 5 5 1 6 7 1 7 0 2 8 1 2 9 5 2 10 4 2 11 3 3 12 2 3 13 6 3 14 7 3 15 2 4 16 0 4 17 4 4 18 6 4 19 7 5 20 5 5 21 1 5 22 3 5 23 11 6 24 9 6 25 8 6 26 10 6 27 14 7 28 12 7 29 13 7 30 15 7 31 8 8 32 9 8 33 13 8 34 12 8 35 11 9 36 10 9 37 14 9 38 15 9 39 10 10 40 8 10 41 12 10 42 14 10 43 15 11 44 13 11 45 9 11 46 11 11 47 19 12 48 17 12 49 16 12 50 18 12 51 22 13 52 20 13 53 21 13 54 23 13 55 16 14 56 17 14 57 21 14 58 20 14 59 19 15 60 18 15 61 22 15 62 23 15 63 18 16 64 16 16 65 20 16 66 22 16 67 23 17 68 21 17 69 17 17 70 19 17 71 27 18 72 25 18 73 24 18 74 26 18 75 30 19 76 28 19 77 29 19 78 31 19 79 24 20 80 25 20 81 29 20 82 28 20 83 27 21 84 26 21 85 30 21 86 31 21 87 26 22 88 24 22 89 28 22 90 30 22 91 31 23 92 29 23 93 25 23 94 27 23 95</p>
        </polylist>
      </mesh>
    </geometry>
  </library_geometries>
  <library_visual_scenes>
    <visual_scene id="Scene" name="Scene">
      <node id="9b234848-39d8-a7a1-9a80-b1c948c4c9f9" name="Legs" type="NODE">
        <scale sid="scale">1 1 1</scale>
        <translate sid="location">-0.390625 0.375 -0.390625</translate>
        <rotate sid="rotationX">1 0 0 0</rotate>
        <rotate sid="rotationY">0 1 0 0</rotate>
        <rotate sid="rotationZ">0 0 1 0</rotate>
        <instance_geometry url="#9b234848-39d8-a7a1-9a80-b1c948c4c9f9-mesh" name="Legs">
          <bind_material>
            <technique_common>
              <instance_material symbol="Material_0-material" target="#Material_0-material">
                <bind_vertex_input semantic="UVMap" input_semantic="TEXCOORD" input_set="0"/>
              </instance_material>
            </technique_common>
          </bind_material>
        </instance_geometry>
      </node>
      <node id="0336b5c3-27f5-e9d4-0941-781e97de715f" name="Top" type="NODE">
        <scale sid="scale">1 1 1</scale>
        <translate sid="location">0 0.875 0</translate>
        <rotate sid="rotationX">1 0 0 0</rotate>
        <rotate sid="rotationY">0 1 0 0</rotate>
        <rotate sid="rotationZ">0 0 1 0</rotate>
        <instance_geometry url="#0336b5c3-27f5-e9d4-0941-781e97de715f-mesh" name="Top">
          <bind_material>
            <technique_common>
              <instance_material symbol="Material_0-material" target="#Material_0-material">
                <bind_vertex_input semantic="UVMap" input_semantic="TEXCOORD" input_set="0"/>
              </instance_material>
            </technique_common>
          </bind_material>
        </instance_geometry>
      </node>
    </visual_scene>
  </library_visual_scenes>
  <scene>
    <instance_visual_scene url="#Scene"/>
  </scene>
</COLLADA>
